<?xml version="1.0" standalone="no"?>
<!DOCTYPE svg PUBLIC "-//W3C//DTD SVG 20010904//EN"
 "http://www.w3.org/TR/2001/REC-SVG-20010904/DTD/svg10.dtd">
<svg version="1.0" xmlns="http://www.w3.org/2000/svg"
 width="946.000000pt" height="1280.000000pt" viewBox="0 0 946.000000 1280.000000"
 preserveAspectRatio="xMidYMid meet">
<metadata>
Created by potrace 1.15, written by Peter Selinger 2001-2017
</metadata>
<g transform="translate(0.000000,1280.000000) scale(0.100000,-0.100000)"
fill="#fff" stroke="none">
<path d="M3725 12539 c-20 -18 -35 -40 -35 -53 0 -12 28 -64 61 -116 l61 -95
-59 -55 c-152 -143 -189 -170 -226 -170 -33 0 -37 3 -43 34 -3 19 -4 79 -2
133 l3 99 -77 -63 c-74 -60 -117 -88 -122 -81 -2 2 -11 52 -20 113 -10 60 -20
113 -22 117 -7 11 -348 -276 -406 -341 -61 -67 -95 -140 -105 -220 l-8 -63
-125 -45 c-106 -37 -147 -59 -267 -138 -131 -87 -144 -100 -173 -152 -71 -134
-155 -213 -556 -525 -149 -116 -191 -144 -235 -155 -58 -15 -197 -85 -252
-127 -26 -20 -42 -47 -65 -109 -18 -45 -34 -94 -38 -109 -9 -40 20 -126 67
-198 49 -76 68 -118 77 -173 6 -33 14 -44 43 -59 58 -30 144 -40 294 -36 129
4 147 7 221 36 45 18 121 60 170 94 118 82 169 111 237 136 78 30 130 28 229
-9 95 -35 98 -35 305 11 75 17 138 28 140 26 3 -2 -29 -78 -70 -168 -42 -90
-94 -205 -116 -256 -54 -125 -100 -206 -171 -300 -58 -77 -203 -224 -254 -257
-16 -11 -45 -54 -72 -109 -82 -163 -87 -170 -203 -251 l-108 -76 -28 -92 c-23
-72 -28 -107 -26 -162 8 -162 3 -233 -18 -279 -11 -26 -28 -49 -37 -53 -21 -8
-101 8 -210 42 -77 23 -95 35 -299 194 -119 93 -243 183 -275 200 l-58 31 -63
-20 c-35 -11 -111 -43 -169 -72 l-105 -53 -21 -140 c-53 -346 -97 -512 -191
-708 l-76 -157 11 -56 c24 -116 156 -339 357 -603 239 -313 422 -476 541 -484
l38 -2 28 120 c15 66 35 166 45 222 17 100 17 103 -2 129 -14 18 -48 36 -110
58 -141 51 -205 103 -205 167 0 12 15 40 33 63 l34 41 7 180 c3 99 9 211 13
249 6 66 7 69 39 82 18 8 60 14 93 14 l59 0 316 -333 315 -334 82 -9 81 -9 33
-91 c94 -266 262 -512 530 -779 113 -113 201 -186 450 -374 171 -129 406 -309
523 -399 117 -90 237 -177 265 -194 29 -17 185 -98 347 -181 162 -83 325 -169
361 -192 85 -55 169 -141 208 -216 55 -101 61 -155 61 -550 0 -318 2 -364 19
-431 62 -243 285 -501 626 -728 44 -29 166 -121 270 -205 289 -230 302 -239
421 -292 162 -72 280 -139 302 -171 73 -103 104 -224 104 -407 0 -188 -30
-317 -117 -502 -130 -277 -363 -503 -622 -606 -37 -15 -49 -28 -103 -119 -33
-57 -80 -140 -103 -185 -41 -80 -41 -82 -23 -102 29 -32 113 -69 191 -86 125
-26 367 -14 517 26 l38 10 -6 122 c-7 140 4 187 49 221 28 20 29 20 42 3 10
-14 21 -17 44 -12 71 15 163 169 262 440 16 44 84 188 151 320 l122 240 1 135
c2 98 8 162 25 235 27 123 87 306 134 409 l36 77 28 -17 c16 -9 71 -50 122
-91 51 -41 158 -115 239 -165 307 -192 416 -273 580 -432 119 -116 213 -233
264 -326 20 -36 77 -168 127 -295 50 -126 96 -234 101 -240 5 -5 36 -12 67
-15 l57 -5 32 -60 c21 -40 29 -64 23 -75 -5 -8 -55 -67 -111 -130 -150 -170
-219 -278 -219 -344 l0 -34 123 -7 c130 -7 623 -3 629 5 3 3 1 99 -2 215 -4
116 -4 264 0 330 6 109 5 126 -16 188 -16 48 -32 75 -56 94 -18 15 -68 61
-110 101 -71 68 -80 82 -113 168 -67 172 -179 384 -235 444 -84 90 -166 211
-174 255 -12 67 -36 136 -83 235 -43 94 -45 96 -93 113 -28 10 -72 38 -100 65
-41 37 -56 60 -73 112 -46 137 -158 259 -355 387 -258 167 -445 323 -533 443
-75 103 -119 182 -119 214 0 17 48 274 106 571 58 297 108 557 111 578 7 53
-29 158 -85 251 -26 41 -102 156 -169 255 -113 165 -123 183 -123 225 l0 46
64 0 c115 0 150 25 206 145 74 161 169 187 250 70 39 -57 66 -117 120 -270 53
-151 81 -205 132 -261 44 -48 91 -64 129 -44 50 27 154 7 274 -53 66 -33 191
-113 201 -128 10 -17 -36 -133 -76 -190 -48 -71 -113 -111 -188 -117 -31 -3
-60 -10 -64 -16 -4 -6 -8 -36 -8 -66 l0 -55 -70 -63 c-81 -73 -81 -74 -55
-244 27 -180 42 -196 201 -207 100 -7 109 -10 131 -35 35 -41 31 -90 -12 -153
-41 -61 -50 -113 -60 -346 l-6 -148 156 -74 c188 -90 325 -149 383 -165 40
-10 48 -9 125 25 45 20 101 44 125 53 l42 16 73 -72 c40 -40 76 -72 80 -72 4
0 7 16 7 35 0 90 -133 155 -370 180 -167 17 -271 50 -334 105 -50 44 -69 84
-68 146 1 88 43 142 159 204 78 41 87 61 81 172 -3 56 -9 75 -36 113 -40 57
-41 95 -7 196 14 41 30 105 35 142 13 86 31 131 64 152 24 16 28 16 51 1 70
-46 155 18 155 118 0 28 -10 46 -56 95 l-56 61 49 48 c28 26 70 58 95 72 43
23 48 28 67 95 12 38 21 81 22 95 0 14 -26 90 -59 170 -41 100 -56 147 -48
152 6 4 36 8 67 8 l56 0 58 131 c32 72 69 147 82 167 22 32 23 39 13 81 -17
70 -66 149 -135 217 -72 71 -126 94 -222 94 l-64 0 3 93 3 92 70 -2 70 -2 -86
83 c-114 111 -227 170 -327 170 -82 1 -126 -19 -232 -104 -105 -84 -119 -87
-229 -56 -103 30 -123 31 -206 11 -33 -8 -78 -15 -100 -15 -39 0 -39 0 35 36
70 33 234 134 228 139 -2 2 -127 -29 -278 -69 l-275 -72 -74 -113 -75 -113
-46 6 c-25 3 -77 9 -116 12 l-70 7 -89 -85 -90 -85 28 -67 c47 -116 30 -156
-67 -156 -48 0 -52 2 -111 63 -33 34 -84 103 -114 152 -30 50 -92 148 -139
219 l-84 129 -377 185 c-207 101 -448 219 -536 262 -195 94 -234 122 -269 191
-22 45 -26 66 -26 143 0 50 8 128 17 173 l17 81 -25 48 c-21 40 -45 62 -149
136 -140 98 -227 148 -259 148 -12 0 -62 -16 -111 -35 -49 -19 -105 -35 -124
-35 -64 0 -120 70 -167 209 -20 56 -27 195 -11 205 14 8 81 -53 102 -94 38
-75 107 -110 188 -95 29 5 53 23 113 86 68 71 79 79 113 79 43 0 104 -28 164
-77 24 -20 45 -33 48 -31 8 8 -80 120 -129 166 -26 23 -55 42 -66 42 -11 0
-48 -13 -83 -30 -34 -16 -71 -30 -81 -30 -27 0 -68 25 -103 62 -37 38 -104
142 -104 159 0 6 16 50 36 96 34 80 44 133 33 188 -4 18 1 20 46 17 28 -2 70
4 94 13 44 15 45 15 114 -19 39 -20 76 -32 85 -29 10 4 39 26 66 50 71 64 81
67 106 41 11 -12 37 -66 58 -120 20 -54 39 -98 42 -98 8 0 50 153 50 184 0 77
-106 173 -227 205 -36 10 -55 8 -122 -9 -96 -24 -124 -25 -161 -3 -31 18 -45
43 -55 97 -6 28 -1 49 25 103 41 87 70 170 70 200 0 29 -4 31 88 -31 82 -55
91 -57 207 -27 44 11 93 21 110 23 24 2 30 9 36 35 14 70 103 180 165 203 80
31 125 -2 166 -121 l29 -84 -5 55 c-15 161 -91 270 -187 270 -23 0 -88 -21
-170 -56 -117 -50 -138 -56 -178 -50 -54 7 -89 28 -102 63 -5 15 -7 79 -3 158
l7 133 -44 20 c-90 41 -90 41 0 102 l81 55 0 137 c0 158 3 153 -115 204 -36
16 -65 34 -65 40 0 32 50 217 64 239 22 34 68 61 117 69 l39 6 0 114 c0 125 0
125 72 126 25 0 29 -6 52 -82 14 -46 35 -119 47 -163 34 -128 62 -170 134
-207 53 -28 160 -30 198 -5 46 30 58 60 68 169 10 109 29 188 60 252 10 22 19
41 19 43 0 3 -17 3 -37 1 -52 -4 -73 -46 -73 -146 0 -74 -13 -116 -45 -142
-13 -11 -19 -10 -39 10 -41 38 -67 115 -77 224 -10 116 -26 182 -70 298 -53
138 -75 148 -311 148 l-156 0 -31 -73 c-28 -69 -70 -202 -85 -274 -9 -39 -42
-83 -62 -83 -32 0 -184 88 -184 106 0 16 67 74 85 74 23 0 55 50 55 87 0 24
-18 65 -61 136 -56 95 -60 105 -55 147 10 76 45 116 162 186 17 10 17 14 1 89
-17 77 -17 79 2 99 29 28 47 17 190 -114 l121 -111 0 69 0 70 -106 101 c-95
91 -112 103 -172 121 -37 12 -96 24 -132 27 -90 7 -111 -10 -145 -123 -40
-128 -69 -155 -154 -138 l-31 7 0 86 c0 51 -7 110 -16 142 -16 54 -72 157 -97
177 -7 6 -50 14 -96 18 l-83 7 -36 56 c-19 31 -65 95 -100 144 -57 76 -66 93
-65 129 0 31 7 47 23 60 l22 18 -31 0 c-20 0 -43 -11 -66 -31z"/>
</g>
</svg>
